<svg display="none">
  <symbol id="fb" viewBox="0 0 11 20" fill="none"
    xmlns="http://www.w3.org/2000/svg">
    <path fill-rule="evenodd" clip-rule="evenodd" d="M10.5858 0.00416134L7.94737 0C4.98322 0 3.06766 1.9319 3.06766 4.92203V7.19141H0.414863C0.18563 7.19141 0 7.37409 0 7.59943V10.8875C0 11.1128 0.185842 11.2953 0.414863 11.2953H3.06766V19.5922C3.06766 19.8175 3.25329 20 3.48252 20H6.94366C7.17289 20 7.35852 19.8173 7.35852 19.5922V11.2953H10.4603C10.6895 11.2953 10.8751 11.1128 10.8751 10.8875L10.8764 7.59943C10.8764 7.49124 10.8326 7.38762 10.7549 7.31105C10.6772 7.23448 10.5714 7.19141 10.4613 7.19141H7.35852V5.26763C7.35852 4.34298 7.58267 3.87358 8.808 3.87358L10.5853 3.87295C10.8144 3.87295 11 3.69027 11 3.46514V0.411972C11 0.187052 10.8146 0.00457747 10.5858 0.00416134Z" fill="#B9B9B9"/>
  </symbol>

  <symbol id="in" viewBox="0 0 19 18" fill="none"
    xmlns="http://www.w3.org/2000/svg">
    <path fill-rule="evenodd" clip-rule="evenodd" d="M19 11.0358V18H14.9277V11.5022C14.9277 9.86991 14.3387 8.75593 12.8646 8.75593C11.7394 8.75593 11.0697 9.50667 10.7752 10.2329C10.6677 10.4925 10.6401 10.8539 10.6401 11.2173V18H6.56638C6.56638 18 6.62124 6.99487 6.56638 5.85466H10.6397V7.57621C10.6314 7.58909 10.6207 7.60297 10.6129 7.61545H10.6397V7.57621C11.1808 6.74984 12.1473 5.56933 14.3106 5.56933C16.9908 5.56929 19 7.30521 19 11.0358ZM2.30513 0C0.911531 0 0 0.906258 0 2.09802C0 3.26381 0.885159 4.19757 2.25106 4.19757H2.27828C3.69887 4.19757 4.58235 3.26398 4.58235 2.09802C4.55558 0.906258 3.69887 0 2.30513 0ZM0.241941 18H4.31408V5.85466H0.241941V18Z" fill="#B9B9B9"/>
  </symbol>

  <symbol id="inst" viewBox="0 0 20 20" fill="none"
    xmlns="http://www.w3.org/2000/svg">
    <path fill-rule="evenodd" clip-rule="evenodd" d="M14.0419 0H5.95811C2.67279 0 0 2.67279 0 5.95811V14.0419C0 17.3272 2.67279 20 5.95811 20H14.0419C17.3272 20 20 17.3272 20 14.0419V5.95811C20 2.67279 17.3272 0 14.0419 0ZM17.988 14.0419C17.988 16.2212 16.2212 17.988 14.0419 17.988H5.95811C3.77875 17.988 2.012 16.2212 2.012 14.0419V5.95811C2.012 3.77871 3.77875 2.012 5.95811 2.012H14.0419C16.2212 2.012 17.988 3.77871 17.988 5.95811V14.0419Z" fill="#B9B9B9"/>
    <path fill-rule="evenodd" clip-rule="evenodd" d="M10 5C7.243 5 5 7.243 5 9.99998C5 12.757 7.243 15 10 15C12.757 15 15 12.757 15 9.99998C15 7.24297 12.757 5 10 5ZM10 13.0552C8.31266 13.0552 6.94482 11.6874 6.94482 10C6.94482 8.31267 8.31269 6.94483 10 6.94483C11.6873 6.94483 13.0552 8.31267 13.0552 10C13.0552 11.6873 11.6873 13.0552 10 13.0552Z" fill="#B9B9B9"/>
    <path fill-rule="evenodd" clip-rule="evenodd" d="M15 6C15.5523 6 16 5.55228 16 5C16 4.44772 15.5523 4 15 4C14.4477 4 14 4.44772 14 5C14 5.55228 14.4477 6 15 6Z" fill="#B9B9B9"/>
  </symbol>

  <symbol id="vimeo" viewBox="0 0 20 16" fill="none"
    xmlns="http://www.w3.org/2000/svg">
    <path fill-rule="evenodd" clip-rule="evenodd" d="M19.172 0.788173C18.6878 0.292436 17.9868 0.0283701 17.0889 0.00332929C14.5535 -0.0743321 12.7604 1.20704 11.7595 3.81136C11.707 3.94813 11.7391 4.09977 11.8431 4.20716C11.9467 4.31393 12.1022 4.35639 12.2492 4.31809C12.537 4.24288 12.8224 4.20479 13.0976 4.20479C13.4671 4.20479 13.9588 4.26932 14.2036 4.57677C14.3915 4.81273 14.4171 5.16654 14.2796 5.62831C14.1636 6.01788 13.5665 7.06075 12.8274 8.1643C11.927 9.50879 11.4296 10.1115 11.2862 10.1115C10.8111 10.1115 9.09432 2.87973 9.04713 2.72113C8.5547 1.06371 8.30753 0.231761 6.7063 0.231761C5.48593 0.231761 2.764 2.34893 0.529061 4.19341C0.391601 4.30684 0.275845 4.40241 0.186217 4.47516C-0.0298117 4.65062 -0.0623911 4.9554 0.112165 5.16899L0.528647 5.67874C0.704078 5.89351 1.02407 5.93834 1.25728 5.78079L1.28019 5.76529C2.00325 5.2766 2.68631 4.81505 3.20196 4.78975C3.7623 4.76361 4.24851 5.59526 4.82816 7.57422C5.93213 11.418 7.60939 16 9.33071 16C11.1295 16 13.2755 14.5514 16.0494 11.1219C18.56 8.01799 19.9044 5.55625 19.9907 3.76518V3.76518C20.0556 2.41241 19.7801 1.41082 19.172 0.788173Z" fill="#B9B9B9"/>
  </symbol>
</svg>